<svg xmlns="http://www.w3.org/2000/svg" xmlns:xlink="http://www.w3.org/1999/xlink" width="500" zoomAndPan="magnify" viewBox="0 0 375 374.999991" height="500" preserveAspectRatio="xMidYMid meet" version="1.0"><defs><g/><clipPath id="f0abbe730c"><rect x="0" width="179" y="0" height="18"/></clipPath><clipPath id="44e6267da5"><path d="M 188 193 L 263.777344 193 L 263.777344 259 L 188 259 Z M 188 193 " clip-rule="nonzero"/></clipPath><clipPath id="b0da7dd1ab"><path d="M 112.277344 204.785156 L 194.71875 204.785156 L 194.71875 268.683594 L 112.277344 268.683594 Z M 112.277344 204.785156 " clip-rule="nonzero"/></clipPath><clipPath id="41aeee45af"><rect x="0" width="215" y="0" height="122"/></clipPath></defs><g transform="matrix(1, 0, 0, 1, 101, 275)"><g clip-path="url(#f0abbe730c)"><g fill="#ffffff" fill-opacity="1"><g transform="translate(0.954743, 14.001405)"><g><path d="M 0.484375 -8.125 L 0.484375 -9.84375 L 8.5625 -9.84375 L 8.5625 -8.125 L 5.546875 -8.125 L 5.546875 0 L 3.5 0 L 3.5 -8.125 Z M 0.484375 -8.125 "/></g></g></g><g fill="#ffffff" fill-opacity="1"><g transform="translate(14.821703, 14.001405)"><g><path d="M 0.859375 0 L 0.859375 -9.84375 L 4.734375 -9.84375 C 5.859375 -9.84375 6.726562 -9.550781 7.34375 -8.96875 C 7.957031 -8.382812 8.265625 -7.601562 8.265625 -6.625 C 8.265625 -5.945312 8.113281 -5.367188 7.8125 -4.890625 C 7.507812 -4.421875 7.082031 -4.066406 6.53125 -3.828125 L 8.609375 0 L 6.3125 0 L 4.453125 -3.484375 L 2.9375 -3.484375 L 2.9375 0 Z M 2.9375 -5.15625 L 4.34375 -5.15625 C 5.53125 -5.15625 6.125 -5.644531 6.125 -6.625 C 6.125 -7.632812 5.53125 -8.140625 4.34375 -8.140625 L 2.9375 -8.140625 Z M 2.9375 -5.15625 "/></g></g></g><g fill="#ffffff" fill-opacity="1"><g transform="translate(28.525212, 14.001405)"><g><path d="M 2.546875 0 L 0.328125 0 L 3.71875 -9.84375 L 6.40625 -9.84375 L 9.796875 0 L 7.5625 0 L 6.828125 -2.25 L 3.28125 -2.25 Z M 3.8125 -3.875 L 6.3125 -3.875 L 5.09375 -7.59375 L 5.015625 -7.59375 Z M 3.8125 -3.875 "/></g></g></g><g fill="#ffffff" fill-opacity="1"><g transform="translate(42.247916, 14.001405)"><g><path d="M 2.640625 -9.84375 L 5.015625 -2.359375 L 5.109375 -2.359375 L 7.484375 -9.84375 L 9.796875 -9.84375 L 6.40625 0 L 3.71875 0 L 0.328125 -9.84375 Z M 2.640625 -9.84375 "/></g></g></g><g fill="#ffffff" fill-opacity="1"><g transform="translate(57.191718, 14.001405)"><g><path d="M 0.859375 0 L 0.859375 -9.84375 L 7.484375 -9.84375 L 7.484375 -8.125 L 2.9375 -8.125 L 2.9375 -5.78125 L 7.140625 -5.78125 L 7.140625 -4.0625 L 2.9375 -4.0625 L 2.9375 -1.71875 L 7.5 -1.71875 L 7.5 0 Z M 0.859375 0 "/></g></g></g><g fill="#ffffff" fill-opacity="1"><g transform="translate(70.303915, 14.001405)"><g><path d="M 0.859375 0 L 0.859375 -9.84375 L 2.9375 -9.84375 L 2.9375 -1.71875 L 7.15625 -1.71875 L 7.15625 0 Z M 0.859375 0 "/></g></g></g><g fill="#ffffff" fill-opacity="1"><g transform="translate(90.764259, 14.001405)"><g><path d="M 2.546875 0 L 0.328125 0 L 3.71875 -9.84375 L 6.40625 -9.84375 L 9.796875 0 L 7.5625 0 L 6.828125 -2.25 L 3.28125 -2.25 Z M 3.8125 -3.875 L 6.3125 -3.875 L 5.09375 -7.59375 L 5.015625 -7.59375 Z M 3.8125 -3.875 "/></g></g></g><g fill="#ffffff" fill-opacity="1"><g transform="translate(105.246545, 14.001405)"><g><path d="M 7.375 -6.65625 C 7.25 -7.125 7.007812 -7.488281 6.65625 -7.75 C 6.300781 -8.007812 5.851562 -8.140625 5.3125 -8.140625 C 4.5625 -8.140625 3.953125 -7.859375 3.484375 -7.296875 C 3.023438 -6.742188 2.796875 -5.957031 2.796875 -4.9375 C 2.796875 -3.90625 3.023438 -3.109375 3.484375 -2.546875 C 3.941406 -1.984375 4.5625 -1.703125 5.34375 -1.703125 C 6.03125 -1.703125 6.570312 -1.878906 6.96875 -2.234375 C 7.363281 -2.597656 7.566406 -3.085938 7.578125 -3.703125 L 5.46875 -3.703125 L 5.46875 -5.265625 L 9.59375 -5.265625 L 9.59375 -4.03125 C 9.59375 -3.164062 9.40625 -2.421875 9.03125 -1.796875 C 8.664062 -1.171875 8.164062 -0.691406 7.53125 -0.359375 C 6.894531 -0.0234375 6.160156 0.140625 5.328125 0.140625 C 4.398438 0.140625 3.585938 -0.0625 2.890625 -0.46875 C 2.191406 -0.882812 1.648438 -1.46875 1.265625 -2.21875 C 0.878906 -2.976562 0.6875 -3.875 0.6875 -4.90625 C 0.6875 -5.96875 0.890625 -6.878906 1.296875 -7.640625 C 1.703125 -8.398438 2.25 -8.976562 2.9375 -9.375 C 3.632812 -9.769531 4.414062 -9.96875 5.28125 -9.96875 C 6.03125 -9.96875 6.703125 -9.828125 7.296875 -9.546875 C 7.898438 -9.265625 8.394531 -8.875 8.78125 -8.375 C 9.164062 -7.882812 9.40625 -7.3125 9.5 -6.65625 Z M 7.375 -6.65625 "/></g></g></g><g fill="#ffffff" fill-opacity="1"><g transform="translate(120.363421, 14.001405)"><g><path d="M 0.859375 0 L 0.859375 -9.84375 L 7.484375 -9.84375 L 7.484375 -8.125 L 2.9375 -8.125 L 2.9375 -5.78125 L 7.140625 -5.78125 L 7.140625 -4.0625 L 2.9375 -4.0625 L 2.9375 -1.71875 L 7.5 -1.71875 L 7.5 0 Z M 0.859375 0 "/></g></g></g><g fill="#ffffff" fill-opacity="1"><g transform="translate(133.475617, 14.001405)"><g><path d="M 9.09375 -9.84375 L 9.09375 0 L 7.296875 0 L 3.015625 -6.1875 L 2.9375 -6.1875 L 2.9375 0 L 0.859375 0 L 0.859375 -9.84375 L 2.6875 -9.84375 L 6.921875 -3.65625 L 7.015625 -3.65625 L 7.015625 -9.84375 Z M 9.09375 -9.84375 "/></g></g></g><g fill="#ffffff" fill-opacity="1"><g transform="translate(148.246364, 14.001405)"><g><path d="M 9.53125 -6.390625 L 7.4375 -6.390625 C 7.351562 -6.929688 7.117188 -7.359375 6.734375 -7.671875 C 6.359375 -7.984375 5.882812 -8.140625 5.3125 -8.140625 C 4.550781 -8.140625 3.941406 -7.859375 3.484375 -7.296875 C 3.023438 -6.734375 2.796875 -5.941406 2.796875 -4.921875 C 2.796875 -3.867188 3.023438 -3.066406 3.484375 -2.515625 C 3.953125 -1.972656 4.554688 -1.703125 5.296875 -1.703125 C 5.847656 -1.703125 6.316406 -1.847656 6.703125 -2.140625 C 7.085938 -2.429688 7.332031 -2.835938 7.4375 -3.359375 L 9.53125 -3.359375 C 9.457031 -2.753906 9.242188 -2.1875 8.890625 -1.65625 C 8.535156 -1.125 8.050781 -0.691406 7.4375 -0.359375 C 6.832031 -0.0234375 6.109375 0.140625 5.265625 0.140625 C 4.390625 0.140625 3.601562 -0.0546875 2.90625 -0.453125 C 2.21875 -0.859375 1.675781 -1.4375 1.28125 -2.1875 C 0.882812 -2.9375 0.6875 -3.847656 0.6875 -4.921875 C 0.6875 -5.992188 0.882812 -6.90625 1.28125 -7.65625 C 1.6875 -8.40625 2.234375 -8.976562 2.921875 -9.375 C 3.617188 -9.769531 4.398438 -9.96875 5.265625 -9.96875 C 6.023438 -9.96875 6.707031 -9.828125 7.3125 -9.546875 C 7.925781 -9.273438 8.425781 -8.867188 8.8125 -8.328125 C 9.207031 -7.796875 9.445312 -7.148438 9.53125 -6.390625 Z M 9.53125 -6.390625 "/></g></g></g><g fill="#ffffff" fill-opacity="1"><g transform="translate(163.247869, 14.001405)"><g><path d="M 0.28125 -9.84375 L 2.609375 -9.84375 L 4.859375 -5.609375 L 4.953125 -5.609375 L 7.1875 -9.84375 L 9.53125 -9.84375 L 5.9375 -3.484375 L 5.9375 0 L 3.875 0 L 3.875 -3.484375 Z M 0.28125 -9.84375 "/></g></g></g></g></g><path fill="#ffffff" d="M 180.347656 162.984375 C 180.347656 162.179688 180.992188 161.550781 181.785156 161.550781 L 194.355469 161.550781 C 195.160156 161.550781 195.792969 162.179688 195.792969 162.984375 L 195.792969 169.199219 L 180.347656 169.199219 Z M 147.875 232.722656 L 182.414062 232.722656 C 182.734375 230.800781 183.851562 229.21875 185.285156 227.945312 L 186.398438 227.140625 C 188.464844 225.394531 191.175781 224.441406 194.035156 224.441406 C 196.113281 224.441406 198.019531 224.910156 199.9375 225.863281 L 202.636719 227.460938 L 210.753906 220.136719 L 198.664062 208.515625 C 196.746094 206.609375 195.792969 203.898438 196.273438 201.1875 C 196.746094 198.492188 198.503906 196.261719 200.878906 194.988281 C 203.117188 193.875 205.507812 193.390625 207.894531 193.390625 C 210.445312 193.390625 212.832031 194.023438 215.222656 195.136719 L 230.667969 202.785156 L 236.703125 197.378906 L 236.703125 177.625 C 236.703125 173.007812 232.878906 169.347656 228.4375 169.347656 L 204.230469 169.347656 L 204.230469 162.984375 C 204.230469 157.566406 199.765625 153.269531 194.515625 153.269531 L 181.945312 153.269531 C 176.523438 153.269531 172.230469 157.726562 172.230469 162.984375 L 172.230469 169.199219 L 147.875 169.199219 C 143.257812 169.199219 139.597656 173.007812 139.597656 177.464844 L 139.597656 224.28125 C 139.433594 229.058594 143.257812 232.722656 147.875 232.722656 " fill-opacity="1" fill-rule="nonzero"/><g clip-path="url(#44e6267da5)"><path fill="#ffffff" d="M 259.636719 193.390625 C 254.066406 193.554688 248.808594 195.621094 244.660156 199.28125 L 231.605469 210.742188 L 212.1875 201.1875 C 209.480469 199.914062 206.296875 199.914062 203.75 201.1875 C 202.636719 201.671875 202.488281 203.105469 203.425781 203.898438 L 220.628906 220.617188 L 203.425781 235.742188 L 196.582031 231.917969 C 194.679688 230.800781 192.289062 231.125 190.53125 232.398438 L 189.417969 233.191406 C 188.625 233.835938 188.625 235.097656 189.417969 235.578125 L 198.824219 242.90625 C 200.246094 244.019531 201.359375 245.457031 202.152344 247.039062 L 207.414062 257.707031 C 207.894531 258.660156 209.007812 258.820312 209.800781 258.191406 L 210.914062 257.398438 C 212.671875 255.960938 213.304688 253.734375 212.671875 251.65625 L 210.59375 244.179688 L 228.910156 230.492188 L 241.644531 250.863281 C 242.273438 251.816406 243.722656 251.976562 244.351562 251.023438 C 246.097656 248.636719 246.742188 245.617188 246.097656 242.746094 L 240.691406 221.894531 L 254.539062 211.546875 C 259.007812 208.191406 262.023438 203.429688 263.300781 198.167969 C 263.929688 195.621094 262.023438 193.390625 259.636719 193.390625 " fill-opacity="1" fill-rule="nonzero"/></g><g clip-path="url(#b0da7dd1ab)"><path fill="#ffffff" d="M 185.285156 247.199219 L 185.125 247.359375 C 180.992188 249.910156 176.683594 252.296875 172.230469 254.203125 C 167.773438 256.125 163.160156 257.546875 158.542969 258.511719 C 153.925781 259.464844 148.988281 259.785156 144.371094 259.304688 C 139.757812 258.820312 135.140625 257.707031 130.996094 255.640625 C 127.023438 253.574219 123.359375 250.542969 121.117188 246.570312 C 118.890625 242.746094 117.617188 238.128906 117.9375 233.511719 C 118.261719 228.898438 119.695312 224.121094 121.925781 219.8125 C 124.152344 215.519531 127.171875 211.386719 130.523438 207.722656 C 131.15625 207.078125 131.15625 205.964844 130.523438 205.335938 C 129.882812 204.691406 128.765625 204.691406 128.136719 205.335938 C 124.3125 208.996094 120.808594 213.128906 118.101562 217.746094 C 115.226562 222.363281 113.160156 227.621094 112.53125 233.191406 C 111.726562 238.757812 112.851562 244.8125 115.550781 249.910156 C 118.261719 255.15625 122.554688 259.304688 127.492188 262.324219 C 132.429688 265.355469 138 267.097656 143.421875 268.066406 C 148.988281 268.855469 154.558594 268.855469 160.125 268.214844 C 165.707031 267.582031 170.953125 266.148438 176.214844 264.402344 C 181.460938 262.644531 186.398438 260.257812 191.175781 257.707031 C 191.335938 257.707031 191.335938 257.546875 191.5 257.546875 C 194.195312 255.800781 195.160156 252.296875 193.402344 249.589844 C 191.644531 246.40625 188.15625 245.457031 185.285156 247.199219 " fill-opacity="1" fill-rule="nonzero"/></g><g transform="matrix(1, 0, 0, 1, 89, 85)"><g clip-path="url(#41aeee45af)"><g fill="#ffffff" fill-opacity="1"><g transform="translate(34.91322, 100.425341)"><g><path d="M -23.078125 -7.671875 L -27.046875 -8.921875 L -23 -21.625 L -19.03125 -20.375 L -20.375 -16.171875 L 2.84375 -8.765625 L 1.46875 -4.4375 L -21.75 -11.84375 Z M -23.078125 -7.671875 "/></g></g></g><g fill="#ffffff" fill-opacity="1"><g transform="translate(41.42885, 81.184344)"><g><path d="M -0.65625 -23.046875 C -0.550781 -22.429688 -0.535156 -21.65625 -0.609375 -20.71875 C -0.691406 -19.78125 -1.046875 -18.785156 -1.671875 -17.734375 L 13.953125 -17.765625 L 10.65625 -13.59375 L -4.8125 -13.546875 L -5.609375 -12.546875 L 3.921875 -5.046875 L 1.109375 -1.484375 L -21.265625 -19.125 L -15.421875 -26.515625 C -13.898438 -28.441406 -11.945312 -29.515625 -9.5625 -29.734375 C -8.46875 -29.828125 -7.410156 -29.722656 -6.390625 -29.421875 C -5.367188 -29.128906 -4.453125 -28.660156 -3.640625 -28.015625 C -1.984375 -26.710938 -0.988281 -25.054688 -0.65625 -23.046875 Z M -6.4375 -24.484375 C -7.15625 -25.054688 -8.054688 -25.304688 -9.140625 -25.234375 C -10.234375 -25.160156 -11.148438 -24.65625 -11.890625 -23.71875 L -14.921875 -19.890625 L -9.15625 -15.359375 L -6.125 -19.1875 C -5.539062 -19.9375 -5.203125 -20.613281 -5.109375 -21.21875 C -5.015625 -21.832031 -5.054688 -22.363281 -5.234375 -22.8125 C -5.421875 -23.269531 -5.640625 -23.640625 -5.890625 -23.921875 C -6.148438 -24.210938 -6.332031 -24.398438 -6.4375 -24.484375 Z M -6.4375 -24.484375 "/></g></g></g><g fill="#ffffff" fill-opacity="1"><g transform="translate(59.700945, 59.716379)"><g><path d="M -4.421875 -29.828125 L -0.8125 -31.71875 L 20.984375 -11.015625 L 16.8125 -8.828125 L 12.015625 -13.375 L 3.421875 -8.890625 L 4.4375 -2.375 L 0.25 -0.1875 Z M 8.859375 -16.359375 L 1.09375 -23.71875 L 2.75 -13.171875 Z M 8.859375 -16.359375 "/></g></g></g><g fill="#ffffff" fill-opacity="1"><g transform="translate(86.393019, 47.149698)"><g><path d="M 11.515625 -8.65625 L 17.296875 -29.4375 L 21.96875 -29.671875 L 13.953125 -0.84375 L 9.875 -0.59375 L -1.1875 -28.46875 L 3.53125 -28.71875 Z M 11.515625 -8.65625 "/></g></g></g><g fill="#ffffff" fill-opacity="1"><g transform="translate(116.008594, 47.353756)"><g><path d="M 1.75 0.5625 L 11.1875 -26.265625 L 25.34375 -21.28125 L 23.96875 -17.40625 L 13.78125 -21 L 11.125 -13.4375 L 20.40625 -10.171875 L 19.03125 -6.25 L 9.75 -9.515625 L 7.09375 -1.96875 L 17.28125 1.625 L 15.90625 5.546875 Z M 1.75 0.5625 "/></g></g></g><g fill="#ffffff" fill-opacity="1"><g transform="translate(138.272317, 56.307339)"><g><path d="M 23.15625 -17.78125 L 7.8125 0.609375 L 16 7.4375 L 13.125 10.890625 L 1.453125 1.15625 L 19.671875 -20.6875 Z M 23.15625 -17.78125 "/></g></g></g><g fill="#ffffff" fill-opacity="1"><g transform="translate(156.547209, 73.900701)"><g><path d="M 1.046875 1.515625 L 24.875 -13.984375 L 27.359375 -10.171875 L 3.53125 5.328125 Z M 1.046875 1.515625 "/></g></g></g><g fill="#ffffff" fill-opacity="1"><g transform="translate(165.256286, 85.798869)"><g><path d="M 31.421875 8.625 C 31.816406 10.519531 31.816406 12.367188 31.421875 14.171875 C 31.023438 15.984375 30.296875 17.65625 29.234375 19.1875 C 28.179688 20.726562 26.863281 22.035156 25.28125 23.109375 C 23.695312 24.191406 21.910156 24.941406 19.921875 25.359375 C 17.972656 25.765625 16.054688 25.789062 14.171875 25.4375 C 12.285156 25.09375 10.546875 24.429688 8.953125 23.453125 C 7.359375 22.484375 6.015625 21.25 4.921875 19.75 C 3.835938 18.257812 3.097656 16.566406 2.703125 14.671875 C 2.304688 12.796875 2.300781 10.945312 2.6875 9.125 C 3.082031 7.300781 3.8125 5.617188 4.875 4.078125 C 5.9375 2.546875 7.257812 1.242188 8.84375 0.171875 C 10.425781 -0.898438 12.191406 -1.640625 14.140625 -2.046875 C 16.128906 -2.460938 18.066406 -2.5 19.953125 -2.15625 C 21.835938 -1.8125 23.570312 -1.148438 25.15625 -0.171875 C 26.75 0.796875 28.09375 2.035156 29.1875 3.546875 C 30.28125 5.054688 31.023438 6.75 31.421875 8.625 Z M 18.984375 20.90625 C 20.828125 20.519531 22.414062 19.75 23.75 18.59375 C 25.082031 17.4375 26.046875 16.0625 26.640625 14.46875 C 27.242188 12.882812 27.367188 11.242188 27.015625 9.546875 C 26.648438 7.835938 25.875 6.378906 24.6875 5.171875 C 23.5 3.960938 22.0625 3.097656 20.375 2.578125 C 18.6875 2.066406 16.921875 2.003906 15.078125 2.390625 C 13.265625 2.773438 11.691406 3.546875 10.359375 4.703125 C 9.035156 5.859375 8.066406 7.226562 7.453125 8.8125 C 6.847656 10.394531 6.726562 12.039062 7.09375 13.75 C 7.445312 15.445312 8.222656 16.898438 9.421875 18.109375 C 10.617188 19.328125 12.054688 20.191406 13.734375 20.703125 C 15.421875 21.222656 17.171875 21.289062 18.984375 20.90625 Z M 18.984375 20.90625 "/></g></g></g></g></g></svg>